<svg xmlns="http://www.w3.org/2000/svg" width="26" height="28">
  <path d="M19 11c0-.547-.453-1-1-1h-2V8c0-.547-.453-1-1-1s-1 .453-1 1v2h-2c-.547 0-1 .453-1 1s.453 1 1 1h2v2c0 .547.453 1 1 1s1-.453 1-1v-2h2c.547 0 1-.453 1-1zm-9 13c0 1.109-.891 2-2 2s-2-.891-2-2 .891-2 2-2 2 .891 2 2zm14 0c0 1.109-.891 2-2 2s-2-.891-2-2 .891-2 2-2 2 .891 2 2zm2-17v8c0 .5-.375.938-.891 1L8.797 17.906C8.86 18.25 9 18.64 9 19s-.219.688-.375 1H23c.547 0 1 .453 1 1s-.453 1-1 1H7c-.547 0-1-.453-1-1 0-.484.734-1.687.953-2.141L4.187 6H1c-.547 0-1-.453-1-1s.453-1 1-1h4c1.062 0 1.078 1.25 1.234 2H25c.547 0 1 .453 1 1z"/>
</svg>