<svg xmlns="http://www.w3.org/2000/svg" width="36" height="28">
  <path d="M4.891 12.141c0 .5-.203.984-.562 1.313-.313.281-.734.406-1.391.406h-.266v-3.437h.266c.656 0 1.062.109 1.391.422.359.313.562.797.562 1.297zm27.75-1.016c0 .531-.344.812-1 .812h-.297v-1.578h.313c.641 0 .984.266.984.766zM5.938 12.141c0-1.531-1.141-2.609-2.797-2.609H1.657v5.203h1.484c.781 0 1.359-.172 1.859-.594.594-.5.938-1.234.938-2zm.468 2.593h1.016V9.531H6.406v5.203zm5-1.578c0-.828-.344-1.203-1.5-1.625-.609-.219-.781-.375-.781-.656 0-.328.313-.578.75-.578.313 0 .562.125.828.422l.531-.688a2.256 2.256 0 0 0-1.531-.578c-.922 0-1.625.641-1.625 1.484 0 .719.328 1.094 1.281 1.437.391.141.594.219.703.297a.596.596 0 0 1 .297.531c0 .422-.328.734-.781.734-.484 0-.875-.234-1.109-.688l-.656.625c.469.688 1.031 1 1.797 1 1.062 0 1.797-.703 1.797-1.719zm4.344 1.406v-1.203c-.406.406-.766.578-1.219.578-1.031 0-1.75-.75-1.75-1.797 0-1 .75-1.797 1.703-1.797.484 0 .844.172 1.266.594V9.734c-.438-.219-.812-.313-1.25-.313-1.531 0-2.766 1.203-2.766 2.719 0 1.531 1.203 2.719 2.75 2.719.438 0 .812-.078 1.266-.297zM35 24v-8.234C32.5 17.329 23.703 22.329 9.484 25H34c.547 0 1-.453 1-1zM21.703 12.172a2.827 2.827 0 1 0-5.656 0 2.828 2.828 0 1 0 5.656 0zm2.375 2.703 2.25-5.344h-1.109l-1.406 3.5-1.391-3.5h-1.109l2.219 5.344h.547zm2.703-.141h2.875v-.875h-1.859v-1.406h1.797v-.875h-1.797v-1.156h1.859v-.891h-2.875v5.203zm6.11 0h1.25L32.5 12.546c.766-.156 1.188-.672 1.188-1.469 0-.984-.672-1.547-1.844-1.547h-1.516v5.203h1.016v-2.078h.141zM36 4.094v19.812C36 25.062 35.078 26 33.937 26H2.062c-1.141 0-2.063-.938-2.063-2.094V4.094C-.001 2.938.921 2 2.062 2h31.875C35.078 2 36 2.938 36 4.094z"/>
</svg>