<svg xmlns="http://www.w3.org/2000/svg" width="22" height="28">
  <path d="M9.641 26.391c0-.375-.828-3.031-1-3.656-.094-.391-.125-1.031-.422-1.313-.203-.187-.531-.219-.797-.219-.734 0-1.469.172-2.203.172-.219 0-.547-.016-.734-.172-.25-.203-.375-.906-.469-1.219-.375-1.297-.578-2.625-.578-3.984s.203-2.688.578-3.984c.094-.313.219-1.016.469-1.219.187-.156.516-.172.734-.172.734 0 1.469.172 2.203.172.266 0 .594-.031.797-.219.297-.281.328-.922.422-1.313.172-.625 1-3.281 1-3.656 0-.531-1.406-1.313-1.859-1.484A1.853 1.853 0 0 0 7.079 4c-.516 0-1.031.141-1.531.281-2.562.766-3.172 2.328-4.188 4.531C.266 11.171.001 13.421.001 15.999s.266 4.828 1.359 7.187c1.016 2.203 1.625 3.766 4.188 4.531.5.141 1.016.281 1.531.281.234 0 .469-.031.703-.125.453-.172 1.859-.953 1.859-1.484zm2.484-14.266a.99.99 0 0 1-.703-.297.995.995 0 0 1 0-1.422C11.797 10.031 12 9.531 12 9s-.203-1.031-.578-1.422c-.406-.391-.391-1.016 0-1.406s1.016-.391 1.406 0a3.998 3.998 0 0 1 0 5.656 1.054 1.054 0 0 1-.703.297zm2.828 2.828a.932.932 0 0 1-.703-.297.99.99 0 0 1 0-1.406C15.375 12.109 16 10.609 16 9s-.625-3.109-1.75-4.25c-.391-.391-.391-1.016 0-1.406s1.016-.391 1.406 0C17.172 4.86 18 6.86 18 9s-.828 4.141-2.344 5.656a.957.957 0 0 1-.703.297zm2.828 2.828a.932.932 0 0 1-.703-.297.99.99 0 0 1 0-1.406C18.953 14.187 20 11.672 20 9s-1.047-5.187-2.922-7.078c-.391-.391-.391-1.016 0-1.406s1.016-.391 1.406 0C20.75 2.782 22 5.797 22 9s-1.25 6.219-3.516 8.484a.957.957 0 0 1-.703.297z"/>
</svg>