<svg xmlns="http://www.w3.org/2000/svg" width="28" height="28">
  <path d="M1.984 14c0-1.734.375-3.391 1.047-4.891l5.734 15.703c-4.016-1.953-6.781-6.062-6.781-10.813zm20.125-.609c0 1.031-.422 2.219-.922 3.891l-1.188 4-4.344-12.906s.719-.047 1.375-.125c.641-.078.562-1.031-.078-.984-1.953.141-3.203.156-3.203.156s-1.172-.016-3.156-.156c-.656-.047-.734.938-.078.984.609.063 1.25.125 1.25.125l1.875 5.125-2.625 7.875-4.375-13s.719-.047 1.375-.125c.641-.078.562-1.031-.078-.984-1.937.141-3.203.156-3.203.156-.219 0-.484-.016-.766-.016a11.966 11.966 0 0 1 10.031-5.422c3.125 0 5.969 1.203 8.109 3.156h-.156c-1.172 0-2.016 1.016-2.016 2.125 0 .984.578 1.813 1.188 2.812.469.797.984 1.828.984 3.313zm-7.906 1.656 3.703 10.109a.59.59 0 0 0 .078.172c-1.25.438-2.578.688-3.984.688-1.172 0-2.312-.172-3.391-.5zm10.328-6.813A11.98 11.98 0 0 1 26.015 14c0 4.438-2.406 8.297-5.984 10.375l3.672-10.594c.609-1.75.922-3.094.922-4.312 0-.438-.031-.844-.094-1.234zM14 0c7.719 0 14 6.281 14 14s-6.281 14-14 14S0 21.719 0 14 6.281 0 14 0zm0 27.359c7.359 0 13.359-6 13.359-13.359S21.359.641 14 .641.641 6.641.641 14s6 13.359 13.359 13.359z"/>
</svg>