<svg xmlns="http://www.w3.org/2000/svg" width="36" height="28">
  <path d="M1.859 10.656H3.25l-.703-1.687zm9.703 8.219 1.156-1.234-1.094-1.234H9.077v.766h2.219v.859H9.077v.844h2.484zm2.469-1.219 1.547 1.719v-3.391zm4.5-.734c0-.375-.281-.516-.625-.516h-1.313v1.078h1.297c.359 0 .641-.172.641-.562zm4.516-.063c0-.391-.344-.453-.656-.453H21.11v.953h1.266c.344 0 .672-.078.672-.5zm-4.344-7.281c0-.391-.344-.453-.656-.453h-1.281v.938h1.266c.344 0 .672-.078.672-.484zm7.172 1.078h1.391l-.688-1.687zM10.922 8.234v4.234H9.891V9.155l-1.469 3.313h-.891L6.062 9.155v3.313H3.999l-.391-.938H1.499l-.391.938H.014l1.813-4.234h1.5l1.719 4.016V8.234h1.656l1.328 2.875 1.203-2.875h1.687zm8.687 8.688c0 1.703-1.859 1.422-3.016 1.422v1.422h-1.969l-1.25-1.406-1.297 1.406h-4v-4.234h4.062l1.25 1.391 1.281-1.391h3.234c.953 0 1.703.328 1.703 1.391zm-4.547-5.328v.875h-3.391V8.235h3.391v.891h-2.375v.766h2.312v.859h-2.312v.844h2.375zM36 20.328v3.578C36 25.047 35.078 26 33.937 26H2.062c-1.141 0-2.063-.953-2.063-2.094V13.312h1.734l.391-.953h.859l.391.953H6.78v-.719l.297.719h1.766l.313-.734v.734h8.453v-1.547l.156-.016c.141 0 .156.109.156.219v1.344h4.359v-.359c1.016.531 2.406.359 3.469.359l.391-.953h.875l.391.953h3.547v-.906l.531.906h2.844V7.406h-2.812v.688l-.391-.688h-2.891v.688l-.359-.688h-3.891c-.578 0-1.188.063-1.703.344v-.344h-2.688v.344c-.313-.281-.734-.344-1.141-.344H8.64l-.672 1.516-.672-1.516H4.202v.688l-.344-.688H1.217l-1.219 2.797V4.094C-.002 2.953.92 2 2.061 2h31.875c1.141 0 2.063.953 2.063 2.094v10.594h-1.875c-.438 0-.906.078-1.266.344v-.344h-2.766c-.391 0-.922.063-1.219.344v-.344h-4.937v.344c-.375-.266-.922-.344-1.359-.344h-3.266v.344c-.328-.313-1-.344-1.422-.344h-3.656l-.844.906-.781-.906H7.155v5.906h5.359l.859-.922.812.922h3.297v-1.391h.328c.469 0 .953-.016 1.406-.203v1.594h2.719v-1.547h.125c.156 0 .187.016.187.187v1.359h8.266c.453 0 1.016-.094 1.375-.375v.375h2.625c.5 0 1.031-.047 1.484-.266zm-11.844-3.656c0 .469-.25.938-.719 1.125.562.203.672.578.672 1.125v.844h-1.016v-.703c0-.719-.234-.844-.906-.844h-1.078v1.547h-1.016v-4.234h2.406c.797 0 1.656.141 1.656 1.141zm-4.328-7.297c0 .484-.266.953-.719 1.141.578.203.672.562.672 1.125v.828h-1.016c-.016-.906.219-1.531-.906-1.531h-1.094v1.531h-1V8.235l2.391.016c.812 0 1.672.125 1.672 1.125zm8.266 9.516v.875h-3.375v-4.234h3.375v.875h-2.359v.766h2.312v.859h-2.312v.844zM21.438 8.234v4.234h-1.031V8.234h1.031zm10.828 10.188c0 1-.688 1.344-1.594 1.344h-1.969v-.906h1.969c.25 0 .531-.063.531-.391 0-.906-2.609.344-2.609-1.672 0-.859.656-1.266 1.437-1.266h2.031v.891h-1.859c-.266 0-.562.047-.562.391 0 .922 2.625-.422 2.625 1.609zM36 17.641v1.578c-.297.438-.875.547-1.375.547h-1.953v-.906h1.953c.25 0 .516-.078.516-.391 0-.891-2.609.344-2.609-1.672 0-.859.672-1.266 1.453-1.266h2.016v.891h-1.844c-.281 0-.562.047-.562.391 0 .75 1.766-.016 2.406.828zM33.422 8.25v4.219h-1.437l-1.906-3.172v3.172h-2.063l-.406-.938h-2.094l-.391.938h-1.172c-1.391 0-2.016-.719-2.016-2.078 0-1.422.641-2.156 2.078-2.156h.984v.922c-1.062-.016-2.031-.25-2.031 1.203 0 .719.172 1.219.984 1.219h.453l1.437-3.328h1.516l1.703 4v-4h1.547l1.781 2.938V8.251h1.031z"/>
</svg>