<svg xmlns="http://www.w3.org/2000/svg" width="36" height="28">
  <path d="M11.641 14.156c0 .766-.609 1.344-1.375 1.344-.578 0-1-.328-1-.938 0-.766.594-1.375 1.359-1.375.578 0 1.016.359 1.016.969zm12.265-2.328c0 .938-.562 1.125-1.375 1.125l-.5.016.266-1.672c.016-.109.094-.172.203-.172h.281c.531 0 1.125.031 1.125.703zm5.485 2.328c0 .766-.609 1.344-1.359 1.344-.578 0-1.016-.328-1.016-.938 0-.766.594-1.375 1.359-1.375.578 0 1.016.359 1.016.969zM8.016 11.484c0-1.313-1.016-1.75-2.172-1.75h-2.5a.335.335 0 0 0-.328.297L2 16.406c-.016.125.078.25.203.25h1.188c.172 0 .328-.125.344-.297l.281-1.719c.063-.453.828-.297 1.125-.297 1.781 0 2.875-1.062 2.875-2.859zm4.828 4.875.641-4.078c.016-.125-.078-.25-.203-.25h-1.188c-.234 0-.25.344-.266.516-.359-.531-.891-.625-1.484-.625-1.531 0-2.703 1.344-2.703 2.828 0 1.219.766 2.016 1.984 2.016.562 0 1.266-.25 1.656-.688a1.227 1.227 0 0 0-.063.328c0 .141.063.25.203.25h1.078a.351.351 0 0 0 .344-.297zm6.984-4.109c0-.109-.094-.219-.203-.219h-1.203a.35.35 0 0 0-.281.156l-1.656 2.438-.688-2.344a.37.37 0 0 0-.344-.25h-1.172c-.109 0-.203.109-.203.219 0 .078 1.219 3.609 1.328 3.938-.172.234-1.281 1.687-1.281 1.875 0 .109.094.203.203.203h1.203a.35.35 0 0 0 .281-.156l3.984-5.75c.031-.031.031-.063.031-.109zm5.938-.766c0-1.313-1.016-1.75-2.172-1.75H21.11c-.172 0-.328.125-.344.297l-1.016 6.375c-.016.125.078.25.203.25h1.281c.125 0 .219-.094.25-.203l.281-1.813c.063-.453.828-.297 1.125-.297 1.781 0 2.875-1.062 2.875-2.859zm4.828 4.875.641-4.078c.016-.125-.078-.25-.203-.25h-1.188c-.234 0-.25.344-.266.516-.344-.531-.875-.625-1.484-.625-1.531 0-2.703 1.344-2.703 2.828 0 1.219.766 2.016 1.984 2.016.578 0 1.281-.25 1.656-.688-.016.094-.063.234-.063.328 0 .141.063.25.203.25h1.078a.351.351 0 0 0 .344-.297zM34 9.969v-.016c0-.125-.094-.219-.203-.219h-1.156a.216.216 0 0 0-.203.172l-1.016 6.5-.016.031c0 .109.094.219.219.219h1.031a.335.335 0 0 0 .328-.297zM6.125 12.063c-.125.797-.656.891-1.344.891l-.516.016.266-1.672a.202.202 0 0 1 .203-.172h.297c.703 0 1.234.094 1.094.938zM36 4v20c0 1.094-.906 2-2 2H2c-1.094 0-2-.906-2-2V4c0-1.094.906-2 2-2h32c1.094 0 2 .906 2 2z"/>
</svg>