<svg xmlns="http://www.w3.org/2000/svg" width="36" height="28">
  <path d="M30.859 15.469h-2.156s.219-.578 1.031-2.797c-.016.016.219-.578.344-.953l.187.859c.484 2.391.594 2.891.594 2.891zM8.297 14.453l-.906-4.609C7.266 9.203 6.782 9 6.219 9H2.031L2 9.203c2.875.734 5.234 2.297 6.297 5.25zM11.094 9l-2.531 6.844-.266-1.391C7.75 13 6.422 11.656 4.922 11.047l2.109 7.969h2.734L13.843 9h-2.75zm2.172 10.031h2.594L17.485 9h-2.594zm12-9.781a6.451 6.451 0 0 0-2.328-.422c-2.562 0-4.359 1.359-4.375 3.313-.016 1.437 1.281 2.234 2.266 2.719 1.016.484 1.344.812 1.344 1.25 0 .672-.812.969-1.547.969-1.047 0-1.609-.125-2.438-.516l-.344-.172-.359 2.25c.609.281 1.719.531 2.891.531 2.719.016 4.484-1.344 4.516-3.422 0-1.141-.703-2-2.188-2.719-.906-.453-1.453-.781-1.453-1.25 0-.422.469-.859 1.484-.859.844-.016 1.469.156 1.937.375l.234.125zm6.64-.25h-2c-.625 0-1.094.187-1.359.844l-3.844 9.188h2.719c.438-1.234.547-1.5.547-1.5h3.313s.078.344.313 1.5h2.406zM36 4v20c0 1.094-.906 2-2 2H2c-1.094 0-2-.906-2-2V4c0-1.094.906-2 2-2h32c1.094 0 2 .906 2 2z"/>
</svg>