<svg xmlns="http://www.w3.org/2000/svg" width="24" height="28">
  <path d="M19.5 2C21.984 2 24 4.016 24 6.5v15c0 2.484-2.016 4.5-4.5 4.5h-15A4.502 4.502 0 0 1 0 21.5v-15C0 4.016 2.016 2 4.5 2h15zm.5 16.5v-6.813a4.766 4.766 0 0 1-1 .859c-1.469.969-2.984 1.875-4.438 2.875-.734.516-1.641 1.078-2.562 1.078-.922 0-1.828-.562-2.562-1.078-1.453-1-2.984-1.891-4.438-2.891-.359-.234-.641-.578-1-.844v6.813a1.5 1.5 0 0 0 1.5 1.5h13a1.5 1.5 0 0 0 1.5-1.5zm0-8.953C20 8.703 19.375 8 18.5 8h-13A1.5 1.5 0 0 0 4 9.5c0 .844.875 1.766 1.531 2.203 1.375.922 2.797 1.781 4.172 2.688.594.391 1.578 1.109 2.297 1.109s1.703-.719 2.297-1.109c1.391-.906 2.781-1.797 4.172-2.719.609-.406 1.531-1.344 1.531-2.125z"/>
</svg>