<svg xmlns="http://www.w3.org/2000/svg" width="30" height="28">
  <path d="M27.828 14.547c0-.438-.484-.547-.828-.547H10c-.828 0-1.922.516-2.453 1.156l-4.594 5.672c-.141.187-.281.391-.281.625 0 .438.484.547.828.547h17c.828 0 1.922-.516 2.453-1.172l4.594-5.672c.141-.172.281-.375.281-.609zM10 12h12V9.5A1.5 1.5 0 0 0 20.5 8h-9A1.5 1.5 0 0 1 10 6.5v-1A1.5 1.5 0 0 0 8.5 4h-5A1.5 1.5 0 0 0 2 5.5v13.328l4-4.922C6.906 12.797 8.578 12 10 12zm19.828 2.547c0 .688-.297 1.344-.719 1.875L24.5 22.094c-.891 1.094-2.594 1.906-4 1.906h-17A3.514 3.514 0 0 1 0 20.5v-15C0 3.578 1.578 2 3.5 2h5C10.422 2 12 3.578 12 5.5V6h8.5C22.422 6 24 7.578 24 9.5V12h3c1.062 0 2.125.484 2.594 1.484.156.328.234.688.234 1.062z"/>
</svg>