<svg xmlns="http://www.w3.org/2000/svg" width="24" height="28">
  <path d="M23.734 10.094c.203.938.156 2.016-.063 3.187-1.016 5.156-4.438 6.937-8.828 6.937h-.688c-.531 0-.969.391-1.062.922l-.063.297-.859 5.406-.031.234c-.109.531-.547.922-1.078.922H7.14c-.438 0-.719-.359-.656-.797.281-1.75.547-3.5.828-5.25s.562-3.484.844-5.234c.047-.375.297-.578.672-.578.625 0 1.25-.016 2.047 0 1.125.016 2.422-.047 3.687-.328 1.687-.375 3.219-1.062 4.484-2.25 1.141-1.062 1.906-2.375 2.422-3.844a14.11 14.11 0 0 0 .547-2.078c.031-.187.078-.156.187-.078.859.641 1.344 1.5 1.531 2.531zm-2.687-4.406c0 1.281-.297 2.5-.719 3.687-.812 2.359-2.344 4.047-4.719 4.922-1.266.453-2.594.641-3.938.656-.938.016-1.875 0-2.812 0-1.016 0-1.656.5-1.844 1.5-.219 1.188-1.078 6.719-1.328 8.281-.016.109-.063.156-.187.156H.891a.752.752 0 0 1-.75-.859L3.766 1.047A1.258 1.258 0 0 1 5 0h9.344c.672 0 2.219.297 3.266.703 2.219.859 3.437 2.609 3.437 4.984z"/>
</svg>