<svg xmlns="http://www.w3.org/2000/svg" width="28" height="28">
  <path d="M.297 13.656C.453 9.187 2.735 5.062 6.875 2.344c.016 0 .109-.031.063.047-.328.313-6.281 7.328-.797 12.781 2.812 2.797 5.078.141 5.078.141 2.172-2.828-.031-7.109-.031-7.109-.562-1.406-2.578-2.266-2.578-2.266l1.625-1.797c1.375.594 2.438 2.188 2.438 2.188.047-1.672-1.234-3.469-1.234-3.469L13.955.001l2.5 2.828c-1.156 1.625-1.234 3.531-1.234 3.531.781-1.297 2.453-2.219 2.453-2.219l1.609 1.797c-1.547.5-2.562 2.25-2.562 2.25-.891 1.609-1.531 5.047.031 7.187 1.828 2.516 4.953-.156 4.953-.156 5.797-5.187-.594-12.703-.594-12.703-.344-.313.047-.156.047-.156 2.828 2.063 6.469 4.766 6.563 11.562C27.83 22.141 22.08 28 14.034 28 6.175 28 .065 21.437.3 13.656z"/>
</svg>